<svg width="17" height="16" viewBox="0 0 17 16" fill="none" xmlns="http://www.w3.org/2000/svg">
<path d="M8.16116 4.25C7.40752 4.25 6.6708 4.46993 6.04417 4.88199C5.41754 5.29404 4.92914 5.87971 4.64074 6.56494C4.35233 7.25016 4.27687 8.00416 4.4239 8.73159C4.57093 9.45902 4.93384 10.1272 5.46675 10.6517C5.99965 11.1761 6.67861 11.5333 7.41778 11.6779C8.15694 11.8226 8.9231 11.7484 9.61937 11.4645C10.3156 11.1807 10.9108 10.7001 11.3295 10.0834C11.7482 9.4667 11.9716 8.74168 11.9716 8C11.9716 7.00544 11.5702 6.05161 10.8556 5.34835C10.141 4.64509 9.17177 4.25 8.16116 4.25ZM8.16116 10.5C7.65874 10.5 7.16759 10.3534 6.74984 10.0787C6.33208 9.80397 6.00648 9.41352 5.81421 8.95671C5.62194 8.49989 5.57163 7.99723 5.66965 7.51227C5.76767 7.02732 6.00961 6.58186 6.36488 6.23223C6.72016 5.8826 7.1728 5.6445 7.66557 5.54804C8.15835 5.45157 8.66912 5.50108 9.1333 5.6903C9.59749 5.87952 9.99423 6.19995 10.2734 6.61107C10.5525 7.0222 10.7015 7.50555 10.7015 8C10.6994 8.66241 10.4311 9.2971 9.95513 9.76549C9.47918 10.2339 8.83426 10.4979 8.16116 10.5ZM11.6541 0.1875H4.66822C3.48918 0.1875 2.35844 0.648436 1.52473 1.46891C0.691027 2.28938 0.222656 3.40218 0.222656 4.5625V11.4375C0.222656 12.5978 0.691027 13.7106 1.52473 14.5311C2.35844 15.3516 3.48918 15.8125 4.66822 15.8125H11.6541C12.8331 15.8125 13.9639 15.3516 14.7976 14.5311C15.6313 13.7106 16.0997 12.5978 16.0997 11.4375V4.5625C16.0997 3.40218 15.6313 2.28938 14.7976 1.46891C13.9639 0.648436 12.8331 0.1875 11.6541 0.1875ZM14.8295 11.4375C14.8295 11.8479 14.7474 12.2542 14.5878 12.6334C14.4282 13.0125 14.1943 13.357 13.8995 13.6472C13.6046 13.9374 13.2545 14.1676 12.8693 14.3246C12.484 14.4817 12.0711 14.5625 11.6541 14.5625H4.66822C4.25122 14.5625 3.8383 14.4817 3.45305 14.3246C3.06779 14.1676 2.71774 13.9374 2.42287 13.6472C2.12801 13.357 1.89411 13.0125 1.73453 12.6334C1.57495 12.2542 1.49282 11.8479 1.49282 11.4375V4.5625C1.49282 3.7337 1.82737 2.93884 2.42287 2.35279C3.01838 1.76674 3.82605 1.4375 4.66822 1.4375H11.6541C12.0711 1.4375 12.484 1.51833 12.8693 1.67538C13.2545 1.83242 13.6046 2.06261 13.8995 2.35279C14.1943 2.64297 14.4282 2.98747 14.5878 3.36661C14.7474 3.74576 14.8295 4.15212 14.8295 4.5625V11.4375ZM13.2418 3.9375C13.2418 4.12292 13.1859 4.30418 13.0813 4.45835C12.9766 4.61252 12.8278 4.73268 12.6537 4.80364C12.4797 4.87459 12.2881 4.89316 12.1033 4.85699C11.9186 4.82081 11.7488 4.73152 11.6156 4.60041C11.4824 4.4693 11.3916 4.30225 11.3549 4.1204C11.3181 3.93854 11.337 3.75004 11.4091 3.57873C11.4812 3.40743 11.6033 3.26101 11.7599 3.158C11.9166 3.05498 12.1008 3 12.2892 3C12.5418 3 12.7841 3.09877 12.9628 3.27459C13.1414 3.4504 13.2418 3.68886 13.2418 3.9375Z" fill="white"/>
</svg>
