<svg width="16" height="16" viewBox="0 0 16 16" fill="none" xmlns="http://www.w3.org/2000/svg">
<path d="M13.0903 13.2825H10.8336V9.80167C10.8336 8.97167 10.8167 7.90333 9.65659 7.90333C8.48042 7.90333 8.30091 8.80667 8.30091 9.74083V13.2825H6.04341V6.125H8.21115V7.1H8.24079C8.54393 6.53833 9.28063 5.94417 10.3814 5.94417C12.6677 5.94417 13.0911 7.42583 13.0911 9.35333V13.2825H13.0903ZM3.49462 5.14583C3.32235 5.14605 3.15172 5.11281 2.99253 5.04801C2.83334 4.9832 2.68872 4.88812 2.56694 4.7682C2.44516 4.64828 2.34864 4.50588 2.28289 4.34918C2.21715 4.19247 2.18348 4.02454 2.18381 3.855C2.18398 3.59986 2.26102 3.3505 2.40519 3.13846C2.54936 2.92641 2.75419 2.76119 2.99378 2.66371C3.23336 2.56623 3.49693 2.54085 3.75117 2.59078C4.00541 2.64072 4.23889 2.76373 4.4221 2.94426C4.6053 3.12478 4.72999 3.35472 4.7804 3.60498C4.83082 3.85525 4.80469 4.11461 4.70532 4.35026C4.60595 4.58592 4.43781 4.78728 4.22216 4.92889C4.0065 5.0705 3.75302 5.146 3.49377 5.14583H3.49462ZM4.62591 13.2825H2.36248V6.125H4.62675V13.2825H4.62591ZM14.2207 0.5H1.23034C0.607118 0.5 0.10498 0.983333 0.10498 1.58083V14.4192C0.10498 15.0167 0.607964 15.5 1.2295 15.5H14.2173C14.8389 15.5 15.3469 15.0167 15.3469 14.4192V1.58083C15.3469 0.983333 14.8389 0.5 14.2173 0.5H14.2199H14.2207Z" fill="white"/>
</svg>
