<svg width="19" height="15" viewBox="0 0 19 15" fill="none" xmlns="http://www.w3.org/2000/svg">
<path d="M18.1476 1.99999C17.4956 2.29166 16.7928 2.48333 16.0646 2.575C16.8097 2.13333 17.3855 1.43333 17.6565 0.591662C16.9537 1.00833 16.1746 1.3 15.3533 1.46666C14.6843 0.749995 13.7444 0.333328 12.6775 0.333328C10.6875 0.333328 9.06173 1.93333 9.06173 3.90833C9.06173 4.19166 9.09561 4.46666 9.15488 4.725C6.14036 4.575 3.45609 3.14999 1.6694 0.991662C1.35609 1.51666 1.17827 2.13333 1.17827 2.78333C1.17827 4.025 1.81335 5.125 2.79561 5.75C2.1944 5.75 1.63552 5.58333 1.1444 5.33333V5.35833C1.1444 7.09166 2.39762 8.54166 4.0573 8.86666C3.52445 9.01017 2.96504 9.03014 2.42303 8.925C2.65301 9.6354 3.10344 10.257 3.71098 10.7024C4.31853 11.1479 5.05264 11.3947 5.81012 11.4083C4.5261 12.4087 2.93447 12.9494 1.29682 12.9417C1.00891 12.9417 0.721009 12.925 0.433105 12.8917C2.04198 13.9083 3.95569 14.5 6.00488 14.5C12.6775 14.5 16.344 9.05 16.344 4.325C16.344 4.16666 16.344 4.01666 16.3355 3.85833C17.0468 3.35833 17.6565 2.725 18.1476 1.99999Z" fill="white"/>
</svg>
